<svg xmlns="http://www.w3.org/2000/svg" viewBox="0 0 1024 1024" width="1024" height="1024"><rect width="1024" height="1024" rx="0" fill="#1a365d"/><path d="M252 172h330l190 190v490a34 34 0 0 1-34 34H252a34 34 0 0 1-34-34V206a34 34 0 0 1 34-34z" fill="#f7f3e8"/><path d="M582 172l190 190H616a34 34 0 0 1-34-34z" fill="#d8d2c2"/><rect x="404" y="470" width="34" height="150" rx="17" transform="rotate(-32 421 545)" fill="#e0a83c"/><rect x="552" y="470" width="34" height="150" rx="17" transform="rotate(32 569 545)" fill="#e0a83c"/><rect x="478" y="566" width="34" height="140" rx="17" fill="#e0a83c"/><rect x="404" y="614" width="182" height="30" rx="15" fill="#e0a83c"/><rect x="404" y="672" width="182" height="30" rx="15" fill="#e0a83c"/></svg>